<?xml version="1.0" encoding="UTF-8"?>
<svg width="116px" height="98px" viewBox="0 0 116 98" version="1.1" xmlns="http://www.w3.org/2000/svg" xmlns:xlink="http://www.w3.org/1999/xlink">
    <!-- Generator: Sketch 54.1 (76490) - https://sketchapp.com -->
    <title>Icon svg</title>
    <desc>Created with Sketch.</desc>
    <g id="Page-1" stroke="none" stroke-width="1" fill="none" fill-rule="evenodd">
        <g id="Icon-svg">
            <rect id="Rectangle-29" fill="#343A56" x="0" y="0" width="116" height="98"></rect>
            <g id="g14" transform="translate(58.000000, 49.000000) scale(1, -1) translate(-58.000000, -49.000000) translate(6.000000, 6.000000)" fill="#AFB1B5">
                <g id="g16-Clipped">
                    <g id="g16" transform="translate(-0.000002, 0.101158)">
                        <g id="g26" transform="translate(12.116409, 0.069962)" stroke="#AFB1B5">
                            <path d="M13.3072252,19.2677069 L-7.81597009e-14,16.6350654 L16.2811786,15.6833904 L16.280372,15.6890554 C22.9876975,8.13682207 30.6512534,2.87769346 38.0433867,0.0391317017 C50.4570407,4.80581132 63.6369695,16.3963691 71.7627103,34.2196236 C68.0922533,33.5046216 64.1342416,33.5394208 62.2875191,33.6086146 C60.941295,31.2224422 59.4434291,28.867832 57.7858555,26.5273842 C52.7671579,19.4417028 45.921903,12.8136712 38.0433867,8.79274632 C31.4760072,12.1443938 25.627313,17.3072177 20.9554557,23.0369446 C19.9302605,22.2826924 16.1197757,20.1251427 12.6388709,19.2677069 L13.3072252,19.2677069 Z" id="path28"></path>
                        </g>
                        <g id="g30" transform="translate(8.827974, 44.519860)" stroke="#AFB1B5">
                            <path d="M80.5605004,22.9205264 L91,20.9913035 L82.9155993,19.8362634 L73.1665749,18.4489732 C56.8783929,34.0143268 23.3129066,33.501503 8.15598843,16.9059316 C8.82829386,11.2854579 10.0055341,6.02835255 11.739332,1.00310686 C9.11665521,0.779339979 5.8228829,0.296602391 3.71764334,0.0878072562 C1.84954571,6.23310126 0.553734466,12.9529865 0,20.2320867 C17.2383629,44.5457945 61.3386953,45.4388388 80.5605004,22.9205264 Z" id="path32"></path>
                        </g>
                        <g id="g34" transform="translate(25.806465, 25.203008)">
                            <path d="M37.2310242,23.5968281 L30.2861535,22.5030815 L24.3676879,1.35529062 L15.94189,0.0284703739 L21.860759,21.1762613 L14.5061328,20.017772 C14.2976253,21.0937144 13.8132589,22.5293832 12.6872381,23.3532338 C10.7227511,24.7913305 7.96738778,24.6136928 7.96738778,24.6136928 C6.67681947,22.7021653 8.61146203,20.650227 10.4589912,19.3804613 L6.52154797,18.7605501 L0.0170836802,24.8419108 L49.0623092,32.5661168 C45.2164157,31.9603681 40.3154825,27.54775 37.2310242,23.5968281" id="path36"></path>
                        </g>
                        <g id="g38" transform="translate(62.196802, 30.210449)">
                            <path d="M19.2039416,18.3364856 L36.6254039,21.0799566 L31.6276781,3.22190293 L12.944282,0.27975289 C10.5833486,-0.0921128627 8.50271051,-0.06581115 6.70196441,0.358253387 C4.90081501,0.782722565 3.4557818,1.52888192 2.36686479,2.59592217 C1.27794778,3.66296242 0.568538508,5.02174936 0.239040286,6.67147371 C-0.0904579359,8.32119806 0.035775777,10.1857872 0.617741425,12.2648364 C1.19930377,14.3438856 2.14545166,16.3100398 3.4553785,18.1637036 C4.76530534,20.0169627 6.31963355,21.678017 8.11795983,23.1456526 C9.91668941,24.6132882 11.9134406,25.8393526 14.1090199,26.8254645 C16.3045993,27.8107672 18.5824523,28.4893513 20.9433857,28.8612171 L40.4406465,31.9316386 L32.9061474,23.6389109 L18.8627476,21.4275438 C17.7230145,21.2478829 16.6171588,20.9104117 15.5447772,20.4151302 C14.4719922,19.9190394 13.4883372,19.3015561 12.5938121,18.561871 C11.6996902,17.8217813 10.9309954,16.9995493 10.289341,16.0955797 C9.64687997,15.1912054 9.18187208,14.2261349 8.89512393,13.2011774 C8.60837579,12.1754106 8.54384737,11.2734641 8.70234529,10.4953381 C8.86084321,9.71721204 9.21534619,9.08597094 9.76746745,8.60040086 C10.3191854,8.1160447 11.0374673,7.78666633 11.9227165,7.61307503 C12.8079657,7.43907908 13.8343708,7.44433942 15.000722,7.62804677 L25.2990538,9.24985084 L26.4585487,13.3937868 L12.3748187,11.1759455 L19.2039416,18.3364856 Z" id="path40"></path>
                        </g>
                        <g id="g42" transform="translate(0.018716, 18.605993)">
                            <path d="M38.7170493,20.0769903 C38.135487,17.9979411 37.1812731,16.003462 35.8552141,14.0927437 C34.5295585,12.1824301 32.9595015,10.464726 31.1450431,8.94044055 C29.3305847,7.4157505 27.3152816,6.12534801 25.0999404,5.06842381 C22.8845993,4.0114996 20.5966636,3.29730694 18.2361335,2.92544119 L0.000403302597,0.0536988041 L4.98643331,17.8688604 L13.4525614,19.2025596 L10.5233747,8.7352872 L20.2921702,10.2737351 C21.4593279,10.4574424 22.5837355,10.7912718 23.6661997,11.2748187 C24.7482606,11.7579609 25.7254628,12.3544029 26.5986129,13.0637398 C27.4713597,13.7730768 28.2291653,14.5795278 28.871223,15.483902 C29.5136841,16.3886809 29.9778854,17.3533468 30.2650368,18.378709 C30.5441222,19.3757462 30.5993747,20.2691952 30.4316008,21.0594605 C30.2638269,21.8497258 29.8992414,22.4935108 29.3378441,22.9904108 C28.7768502,23.4873109 28.0569551,23.8369213 27.1801752,24.0392422 C26.3029921,24.2411584 25.2943323,24.2524884 24.1545992,24.0732321 L5.91927222,21.2014897 L13.3723042,29.4808642 L26.234834,31.5069054 C28.6231919,31.8828176 30.7256084,31.8872686 32.54168,31.5198539 C34.3589615,31.1524392 35.8197235,30.463739 36.9247726,29.4533486 C38.0298217,28.4433628 38.7481036,27.1404164 39.0800217,25.5457234 C39.4119397,23.9506257 39.2909489,22.1277146 38.7170493,20.0769903" id="path44"></path>
                        </g>
                    </g>
                </g>
            </g>
        </g>
    </g>
</svg>