<?xml version="1.0" encoding="UTF-8"?>
<svg width="28px" height="26px" viewBox="0 0 28 26" version="1.1" xmlns="http://www.w3.org/2000/svg" xmlns:xlink="http://www.w3.org/1999/xlink">
    <!-- Generator: Sketch 54.1 (76490) - https://sketchapp.com -->
    <title>noun_configuration_2753117</title>
    <desc>Created with Sketch.</desc>
    <g id="Page-1" stroke="none" stroke-width="1" fill="none" fill-rule="evenodd">
        <g id="noun_configuration_2753117" transform="translate(-6.000000, -6.000000)">
            <rect id="Rectangle" x="0" y="0" width="40" height="38"></rect>
            <g id="Group" transform="translate(6.000000, 6.000000)" fill="#141414" fill-rule="nonzero">
                <path d="M27.25,13.75 L11.06,13.75 L11.06,12.25 L27.25,12.25 C27.6642136,12.25 28,12.5857864 28,13 C28,13.4142136 27.6642136,13.75 27.25,13.75 Z" id="Path"></path>
                <path d="M6.56,13.75 L0.75,13.75 C0.335786438,13.75 0,13.4142136 0,13 C0,12.5857864 0.335786438,12.25 0.75,12.25 L6.56,12.25 L6.56,13.75 Z" id="Path"></path>
                <path d="M27.25,4.75 L21.25,4.75 L21.25,3.25 L27.25,3.25 C27.6642136,3.25 28,3.58578644 28,4 C28,4.41421356 27.6642136,4.75 27.25,4.75 L27.25,4.75 Z" id="Path"></path>
                <path d="M16.75,4.75 L0.75,4.75 C0.335786438,4.75 0,4.41421356 0,4 C0,3.58578644 0.335786438,3.25 0.75,3.25 L16.75,3.25 L16.75,4.75 Z" id="Path"></path>
                <path d="M16.75,22.75 L0.75,22.75 C0.335786438,22.75 0,22.4142136 0,22 C0,21.5857864 0.335786438,21.25 0.75,21.25 L16.75,21.25 L16.75,22.75 Z" id="Path"></path>
                <path d="M27.25,22.75 L21.25,22.75 L21.25,21.25 L27.25,21.25 C27.6642136,21.25 28,21.5857864 28,22 C28,22.4142136 27.6642136,22.75 27.25,22.75 L27.25,22.75 Z" id="Path"></path>
                <path d="M19,8 C17.3431458,8 16,6.65685425 16,5 L16,3 C16,1.34314575 17.3431458,0 19,0 C20.6568542,-4.4408921e-16 22,1.34314575 22,3 L22,5 C22,6.65685425 20.6568542,8 19,8 Z" id="Shape"></path>
                <path d="M19,26 C17.3431458,26 16,24.6568542 16,23 L16,21 C16,19.3431458 17.3431458,18 19,18 C20.6568542,18 22,19.3431458 22,21 L22,23 C22,24.6568542 20.6568542,26 19,26 Z" id="Shape"></path>
                <path d="M8.81,17 C7.15314575,17 5.81,15.6568542 5.81,14 L5.81,12 C5.81,10.3431458 7.15314575,9 8.81,9 C10.4668542,9 11.81,10.3431458 11.81,12 L11.81,14 C11.81,15.6568542 10.4668542,17 8.81,17 Z" id="Shape"></path>
            </g>
        </g>
    </g>
</svg>