<?xml version="1.0" encoding="UTF-8"?>
<svg width="61px" height="58px" viewBox="0 0 61 58" version="1.1" xmlns="http://www.w3.org/2000/svg" xmlns:xlink="http://www.w3.org/1999/xlink">
    <!-- Generator: Sketch 54.1 (76490) - https://sketchapp.com -->
    <title>noun_682496_cc</title>
    <desc>Created with Sketch.</desc>
    <g id="Page-1" stroke="none" stroke-width="1" fill="none" fill-rule="evenodd">
        <g id="noun_682496_cc" transform="translate(-6.000000, -6.000000)">
            <rect id="Rectangle-28" x="0" y="0" width="73" height="70"></rect>
            <path d="M64.4994109,64 L45.0106818,64 C43.6308828,64 42.5094147,62.867944 42.5094147,61.4766438 L42.5094147,44.6859618 C42.1256475,43.8808682 40.517351,41.0668028 36.5867883,41.0668028 L36.4145677,41.0668028 C32.483327,41.0668028 30.8757086,43.8808682 30.4763466,44.7441037 L30.4919414,61.4766438 C30.4919414,62.867944 29.3697953,64 27.9906743,64 L8.50126715,64 C7.12214614,64 6,62.867944 6,61.4766438 L6,36.7684101 C6,36.0946487 6.25968699,35.4612445 6.7315986,34.9851654 L34.7316875,6.73780316 C35.7060223,5.75486391 37.2926217,5.75349586 38.2683125,6.73711914 L66.2677234,34.9844814 C66.740313,35.4619285 67,36.0953327 67,36.7684101 L67,61.4766438 C67,62.867944 65.8785319,64 64.4994109,64 Z" id="Shape" fill="#B5B7B9" fill-rule="nonzero"></path>
        </g>
    </g>
</svg>