<?xml version="1.0" encoding="UTF-8"?>
<svg width="246px" height="246px" viewBox="0 0 246 246" version="1.1" xmlns="http://www.w3.org/2000/svg" xmlns:xlink="http://www.w3.org/1999/xlink">
    <!-- Generator: Sketch 54.1 (76490) - https://sketchapp.com -->
    <title>md-new-post-deactivated-night</title>
    <desc>Created with Sketch.</desc>
    <g id="Page-1" stroke="none" stroke-width="1" fill="none" fill-rule="evenodd">
        <g id="md-new-post-deactivated-night">
            <rect id="Rectangle-33" fill="#343A56" fill-rule="nonzero" x="0" y="0" width="246" height="246"></rect>
            <rect id="Rectangle-35" stroke="#4061D3" stroke-width="12" x="25" y="25" width="196" height="196" rx="53"></rect>
            <path d="M68.1729978,169.825871 C68.9159923,170.573309 69.9251046,170.995557 70.9790015,171 C71.322067,170.999823 71.6635126,170.952958 71.9939389,170.860697 C72.3119621,170.947329 72.6395153,170.994122 72.969075,171 L134.661353,171 C136.859528,171 138.6415,169.218049 138.6415,167.0199 C138.6415,164.821752 136.859528,163.039801 134.661353,163.039801 L97.4867804,163.039801 L163,97.5074627 L140.492269,75 L74.6407367,140.830846 C74.1613654,141.320587 73.812417,141.922687 73.6257992,142.58209 L67.1381596,165.965174 C66.7650602,167.34453 67.1600251,168.818035 68.1729978,169.825871 Z" id="Shape" fill="#4061D3" fill-rule="nonzero"></path>
            <path d="M176.686567,72.5226371 L165.477363,61.313433 C162.385306,58.2288557 157.38002,58.2288557 154.287963,61.313433 L147,68.6013961 L169.398604,91 L176.686567,83.7120369 C179.771144,80.6199801 179.771144,75.6146939 176.686567,72.5226371 Z" id="Shape" fill="#4061D3" fill-rule="nonzero"></path>
            <path d="M174.142857,163 L154.857143,163 C152.726902,163 151,164.790861 151,167 C151,169.209139 152.726902,171 154.857143,171 L174.142857,171 C176.273098,171 178,169.209139 178,167 C178,164.790861 176.273098,163 174.142857,163 Z" id="Shape" fill="#4061D3" fill-rule="nonzero"></path>
            <path d="M154.142857,163 L134.857143,163 C132.726902,163 131,164.790861 131,167 C131,169.209139 132.726902,171 134.857143,171 L154.142857,171 C156.273098,171 158,169.209139 158,167 C158,164.790861 156.273098,163 154.142857,163 Z" id="Shape" fill="#4061D3" fill-rule="nonzero"></path>
        </g>
    </g>
</svg>