<?xml version="1.0" encoding="UTF-8"?>
<svg width="48px" height="56px" viewBox="0 0 48 56" version="1.1" xmlns="http://www.w3.org/2000/svg" xmlns:xlink="http://www.w3.org/1999/xlink">
    <!-- Generator: Sketch 54.1 (76490) - https://sketchapp.com -->
    <title>noun_notification_1594277</title>
    <desc>Created with Sketch.</desc>
    <g id="Page-1" stroke="none" stroke-width="1" fill="none" fill-rule="evenodd">
        <g id="noun_notification_1594277" fill="#000000" fill-rule="nonzero">
            <g id="Group">
                <g id="Shape">
                    <path d="M19.5,7.0667924 C11.7364775,9.064044 6,16.1087382 6,24.4992494 L6,36.4982567 C6,37.603789 5.1017394,38.5 4.0020869,38.5 C1.7917953,38.5 0,40.2953562 0,42.5 C0,44.709139 1.7940525,46.5 4.0098932,46.5 L43.9901068,46.5 C46.2047097,46.5 48,44.7046438 48,42.5 C48,40.290861 46.1998022,38.5 43.9979131,38.5 C42.8944962,38.5 42,37.6107383 42,36.4982567 L42,24.4992494 C42,16.112059 36.2647191,9.0647228 28.5,7.0668673 L28.5,5.0008537 C28.5,2.5092478 26.4852814,0.5 24,0.5 C21.5197757,0.5 19.5,2.5151008 19.5,5.0008537 L19.5,7.0667924 Z M17,48.5 L31,48.5 C31,52.3659932 27.8659932,55.5 24,55.5 C20.1340068,55.5 17,52.3659932 17,48.5 Z"></path>
                </g>
            </g>
        </g>
    </g>
</svg>