<?xml version="1.0" encoding="UTF-8"?>
<svg width="84px" height="48px" viewBox="0 0 84 48" version="1.1" xmlns="http://www.w3.org/2000/svg" xmlns:xlink="http://www.w3.org/1999/xlink">
    <!-- Generator: Sketch 54.1 (76490) - https://sketchapp.com -->
    <title>noun_View_1483812</title>
    <desc>Created with Sketch.</desc>
    <g id="Page-1" stroke="none" stroke-width="1" fill="none" fill-rule="evenodd">
        <g id="noun_View_1483812" transform="translate(-6.000000, -6.000000)">
            <rect id="Rectangle-36" x="0" y="0" width="96" height="60"></rect>
            <path d="M87.98,27.971 C78.102,14.089 63.529,6.127 48,6.127 C32.471,6.127 17.898,14.089 8.02,27.971 L6.575,30 L8.019,32.029 C17.897,45.911 32.47,53.873 48,53.873 C63.53,53.873 78.103,45.911 87.98,32.029 L89.425,30 L87.98,27.971 Z M48.001,46.709 C38.787,46.709 31.291,39.213 31.291,30 C31.291,20.787 38.787,13.291 48.001,13.291 C57.214,13.291 64.709,20.787 64.709,30 C64.709,39.213 57.214,46.709 48.001,46.709 Z M15.242,30 C18.608,25.728 22.507,22.201 26.758,19.485 C25.182,22.656 24.291,26.225 24.291,30 C24.291,33.775 25.183,37.344 26.759,40.515 C22.507,37.799 18.608,34.272 15.242,30 Z M69.242,40.515 C70.818,37.344 71.709,33.775 71.709,30 C71.709,26.225 70.818,22.656 69.242,19.486 C73.493,22.202 77.391,25.727 80.758,30 C77.392,34.272 73.493,37.799 69.242,40.515 Z" id="Shape" fill="#FFFFFF" fill-rule="nonzero"></path>
        </g>
    </g>
</svg>