<?xml version="1.0" encoding="UTF-8"?>
<svg width="112px" height="112px" viewBox="0 0 112 112" version="1.1" xmlns="http://www.w3.org/2000/svg" xmlns:xlink="http://www.w3.org/1999/xlink">
    <!-- Generator: Sketch 54.1 (76490) - https://sketchapp.com -->
    <title>noun_write_1863753</title>
    <desc>Created with Sketch.</desc>
    <g id="Page-1" stroke="none" stroke-width="1" fill="none" fill-rule="evenodd">
        <g id="noun_write_1863753" fill="#A2A4A6" fill-rule="nonzero">
            <path d="M1.17299782,110.825871 C1.91599234,111.573309 2.9251046,111.995557 3.97900145,112 C4.32206701,111.999823 4.66351264,111.952958 4.99393894,111.860697 C5.31196213,111.947329 5.63951534,111.994122 5.96907495,112 L67.6613534,112 C69.8595279,112 71.6415004,110.218049 71.6415004,108.0199 C71.6415004,105.821752 69.8595279,104.039801 67.6613534,104.039801 L30.4867804,104.039801 L96,38.5074627 L73.4922687,16 L7.64073669,81.8308458 C7.16136535,82.3205868 6.81241703,82.9226866 6.62579921,83.5820896 L0.138159604,106.965174 C-0.234939797,108.34453 0.160025123,109.818035 1.17299782,110.825871 Z" id="Shape"></path>
            <path d="M109.686567,13.5226371 L98.4773629,2.31343297 C95.3853061,-0.771144324 90.3800199,-0.771144324 87.2879631,2.31343297 L80,9.60139606 L102.398604,32 L109.686567,24.7120369 C112.771144,21.6199801 112.771144,16.6146939 109.686567,13.5226371 Z" id="Shape"></path>
            <path d="M107.142857,104 L87.8571429,104 C85.7269017,104 84,105.790861 84,108 C84,110.209139 85.7269017,112 87.8571429,112 L107.142857,112 C109.273098,112 111,110.209139 111,108 C111,105.790861 109.273098,104 107.142857,104 Z" id="Shape"></path>
            <path d="M87.1428571,104 L67.8571429,104 C65.7269017,104 64,105.790861 64,108 C64,110.209139 65.7269017,112 67.8571429,112 L87.1428571,112 C89.2730983,112 91,110.209139 91,108 C91,105.790861 89.2730983,104 87.1428571,104 Z" id="Shape"></path>
        </g>
    </g>
</svg>