<?xml version="1.0" encoding="UTF-8"?>
<svg width="67px" height="70px" viewBox="0 0 67 70" version="1.1" xmlns="http://www.w3.org/2000/svg" xmlns:xlink="http://www.w3.org/1999/xlink">
    <!-- Generator: Sketch 54.1 (76490) - https://sketchapp.com -->
    <title>discover</title>
    <desc>Created with Sketch.</desc>
    <g id="Page-1" stroke="none" stroke-width="1" fill="none" fill-rule="evenodd">
        <g id="discover">
            <g id="noun_1566183_cc" fill="#FFFFFF">
                <rect id="Rectangle-30" x="0" y="0" width="67" height="70"></rect>
            </g>
            <g id="noun_Search_1157129" transform="translate(6.000000, 6.000000)" fill="#21253C" fill-rule="nonzero">
                <path d="M53.9817779,52.0512821 L43.4588983,41.5220513 C47.3826839,37.12 49.8201871,31.2902564 49.8201871,24.9251282 C49.8201871,11.1835897 38.6433432,0 24.9100936,0 C11.1768439,0 0,11.1835897 0,24.9251282 C0,38.6666667 11.1768439,49.8502564 24.9100936,49.8502564 C29.7850999,49.8502564 34.3033985,48.4225641 38.1082816,46.0430769 L49.0473203,56.9887179 C49.7012845,57.6430769 50.593054,58 51.4848235,58 C52.3765929,58 53.2683624,57.6430769 53.9223266,56.9887179 C55.3491578,55.6205128 55.3491578,53.4194872 53.9817779,52.0512821 Z M6.95580178,24.9251282 C6.95580178,15.0502564 14.9817269,6.96 24.9100936,6.96 C34.8384602,6.96 42.804934,15.0502564 42.804934,24.9251282 C42.804934,34.8 34.7790089,42.8902564 24.9100936,42.8902564 C15.0411782,42.8902564 6.95580178,34.8594872 6.95580178,24.9251282 Z" id="Shape"></path>
            </g>
        </g>
    </g>
</svg>