<?xml version="1.0" encoding="UTF-8"?>
<svg width="95px" height="84px" viewBox="0 0 95 84" version="1.1" xmlns="http://www.w3.org/2000/svg" xmlns:xlink="http://www.w3.org/1999/xlink">
    <!-- Generator: Sketch 54.1 (76490) - https://sketchapp.com -->
    <title>noun_Calendar_1757900</title>
    <desc>Created with Sketch.</desc>
    <g id="Page-1" stroke="none" stroke-width="1" fill="none" fill-rule="evenodd">
        <g id="noun_Calendar_1757900" transform="translate(-6.000000, -6.000000)">
            <g id="Group">
                <rect id="Rectangle" x="0" y="0" width="107" height="96"></rect>
                <path d="M90.6,6.1 L79.7,6.1 L66.2,6 L40.8,6 L27.3,6 L16.4,6 C10.6,6 6,10.7 6,16.4 L6,79.4 C6,85.2 10.7,89.8 16.4,89.8 L90.5,89.8 C96.3,89.8 100.9,85.1 100.9,79.4 L100.9,16.4 C101,10.8 96.3,6.1 90.6,6.1 Z M90.6,84 L16.4,84 C13.9,84 11.9,82 11.9,79.5 L11.9,30.4 L95,30.4 L95,79.5 C95.1,82 93,84 90.6,84 Z" id="Shape" fill="#A8AAAC" fill-rule="nonzero"></path>
                <path d="M34.7,39.5 L23.7,39.5 C22.2,39.5 21,40.7 21,42.2 L21,50.5 C21,52 22.2,53.2 23.7,53.2 L34.7,53.2 C36.2,53.2 37.4,52 37.4,50.5 L37.4,42.2 C37.4,40.7 36.2,39.5 34.7,39.5 Z" id="Path" fill="#A8AAAC" fill-rule="nonzero"></path>
                <path d="M59.1,39.5 L48.1,39.5 C46.6,39.5 45.4,40.7 45.4,42.2 L45.4,50.5 C45.4,52 46.6,53.2 48.1,53.2 L59.1,53.2 C60.6,53.2 61.8,52 61.8,50.5 L61.8,42.2 C61.8,40.7 60.6,39.5 59.1,39.5 Z" id="Path" fill="#A8AAAC" fill-rule="nonzero"></path>
                <path d="M83.6,39.5 L72.6,39.5 C71.1,39.5 69.9,40.7 69.9,42.2 L69.9,50.5 C69.9,52 71.1,53.2 72.6,53.2 L83.6,53.2 C85.1,53.2 86.3,52 86.3,50.5 L86.3,42.2 C86.3,40.7 85.1,39.5 83.6,39.5 Z" id="Path" fill="#A8AAAC" fill-rule="nonzero"></path>
                <path d="M34.7,61.5 L23.7,61.5 C22.2,61.5 21,62.7 21,64.2 L21,72.5 C21,74 22.2,75.2 23.7,75.2 L34.7,75.2 C36.2,75.2 37.4,74 37.4,72.5 L37.4,64.2 C37.4,62.7 36.2,61.5 34.7,61.5 Z" id="Path" fill="#A8AAAC" fill-rule="nonzero"></path>
                <path d="M59.1,61.5 L48.1,61.5 C46.6,61.5 45.4,62.7 45.4,64.2 L45.4,72.5 C45.4,74 46.6,75.2 48.1,75.2 L59.1,75.2 C60.6,75.2 61.8,74 61.8,72.5 L61.8,64.2 C61.8,62.7 60.6,61.5 59.1,61.5 Z" id="Path" fill="#A8AAAC" fill-rule="nonzero"></path>
                <path d="M83.6,61.5 L72.6,61.5 C71.1,61.5 69.9,62.7 69.9,64.2 L69.9,72.5 C69.9,74 71.1,75.2 72.6,75.2 L83.6,75.2 C85.1,75.2 86.3,74 86.3,72.5 L86.3,64.2 C86.3,62.7 85.1,61.5 83.6,61.5 Z" id="Path" fill="#A8AAAC" fill-rule="nonzero"></path>
            </g>
        </g>
    </g>
</svg>