<?xml version="1.0" encoding="UTF-8"?>
<svg width="87px" height="88px" viewBox="0 0 87 88" version="1.1" xmlns="http://www.w3.org/2000/svg" xmlns:xlink="http://www.w3.org/1999/xlink">
    <!-- Generator: Sketch 54.1 (76490) - https://sketchapp.com -->
    <title>noun_new_258297</title>
    <desc>Created with Sketch.</desc>
    <g id="Page-1" stroke="none" stroke-width="1" fill="none" fill-rule="evenodd">
        <g id="noun_new_258297" transform="translate(-6.000000, -6.000000)">
            <rect id="Rectangle-26" x="0" y="0" width="99" height="99"></rect>
            <path d="M93,49.475 C93,48.875 92.7,48.375 92.3,48.075 L82,40.775 L87.3,29.275 C87.5,28.775 87.5,28.175 87.2,27.675 C86.9,27.175 86.4,26.875 85.8,26.775 L73.2,25.675 L72.1,13.075 C72,12.475 71.7,11.975 71.2,11.675 C70.7,11.375 70.1,11.375 69.6,11.575 L58.1,16.875 L50.9,6.675 C50.2,5.775 48.7,5.775 48.1,6.675 L40.8,16.975 L29.3,11.675 C28.8,11.475 28.2,11.475 27.7,11.775 C27.2,12.075 26.9,12.575 26.8,13.175 L25.7,25.775 L13.1,26.875 C12.5,26.975 12,27.275 11.7,27.775 C11.4,28.275 11.4,28.875 11.6,29.375 L16.9,40.875 L6.7,48.075 C6.2,48.375 6,48.975 6,49.475 C6,49.975 6.3,50.575 6.7,50.875 L17,58.175 L11.7,69.675 C11.5,70.175 11.5,70.775 11.8,71.275 C12.1,71.775 12.6,72.075 13.2,72.175 L25.8,73.275 L26.9,85.875 C27,86.475 27.3,86.975 27.8,87.275 C28.3,87.575 28.9,87.575 29.4,87.375 L40.9,82.075 L48.2,92.375 C48.5,92.875 49.1,93.075 49.6,93.075 C50.2,93.075 50.7,92.775 51,92.375 L58.3,82.075 L69.8,87.375 C70.3,87.575 70.9,87.575 71.4,87.275 C71.9,86.975 72.2,86.475 72.3,85.875 L73.4,73.275 L86,72.175 C86.6,72.075 87.1,71.775 87.4,71.275 C87.7,70.775 87.7,70.175 87.5,69.675 L82.2,58.175 L92.5,50.875 C92.8,50.575 93,49.975 93,49.475 Z" id="Shape" fill="#000000" fill-rule="nonzero"></path>
        </g>
    </g>
</svg>