<?xml version="1.0" encoding="UTF-8"?>
<svg width="64px" height="70px" viewBox="0 0 64 70" version="1.1" xmlns="http://www.w3.org/2000/svg" xmlns:xlink="http://www.w3.org/1999/xlink">
    <!-- Generator: Sketch 54.1 (76490) - https://sketchapp.com -->
    <title>notifications</title>
    <desc>Created with Sketch.</desc>
    <g id="Page-1" stroke="none" stroke-width="1" fill="none" fill-rule="evenodd">
        <g id="notifications">
            <rect id="Rectangle-31" fill="#343A56" x="0" y="0" width="63.4000015" height="70"></rect>
            <g id="Group" transform="translate(6.000000, 6.000000)" fill="#A9AAAC" fill-rule="nonzero">
                <path d="M25.6721311,58 C28.8009221,58 31.4483607,55.9861111 32.491291,53.1666667 L18.8529713,53.1666667 C19.8959016,55.9861111 22.5433402,58 25.6721311,58 Z" id="Shape"></path>
                <path d="M50.301332,46.4805556 C48.1352459,45.675 43.3217213,42.5333333 43.3217213,30.6111111 L43.3217213,24.9722222 C43.3217213,11.8650278 35.3826148,7.97016667 27.9657756,7.366 C28.7239057,6.56044444 29.6834016,5.9885 29.6834016,4.02777778 C29.6834016,1.77222222 27.9184426,0 25.6721311,0 C23.4258197,0 21.6608607,1.77222222 21.6608607,4.02777778 C21.6608607,5.39722222 22.3828893,6.60555556 23.4258197,7.33055556 C15.9648566,7.975 8.02254098,11.8416667 8.02254098,24.9722222 L8.02254098,30.6111111 C8.02254098,42.5333333 3.20901639,45.675 1.04293033,46.4 C0.401127049,46.6416667 0,47.2861111 0,47.9305556 L0,51.5555556 L51.3442623,51.5555556 L51.3442623,47.9305556 C51.3442623,47.2861111 50.9431352,46.6416667 50.301332,46.4805556 Z" id="Shape"></path>
            </g>
        </g>
    </g>
</svg>