<?xml version="1.0" encoding="UTF-8"?>
<svg width="76px" height="97px" viewBox="0 0 76 97" version="1.1" xmlns="http://www.w3.org/2000/svg" xmlns:xlink="http://www.w3.org/1999/xlink">
    <!-- Generator: Sketch 54.1 (76490) - https://sketchapp.com -->
    <title>share</title>
    <desc>Created with Sketch.</desc>
    <g id="Page-1" stroke="none" stroke-width="1" fill="none" fill-rule="evenodd">
        <g id="share" transform="translate(-6.000000, -6.000000)">
            <polygon id="Rectangle-23" points="0 0 88 0 88 109 0 109"></polygon>
            <g id="Group" transform="translate(6.000000, 6.000000)" fill="#A2A4A6" fill-rule="nonzero">
                <g id="Shape">
                    <path d="M42.2222222,14.4182885 L42.2222222,29.5217391 L67.5762896,29.5217391 C72.2285764,29.5217391 76,33.2942536 76,37.9314717 L76,88.5902674 C76,93.2348345 72.2311482,97 67.5762896,97 L8.42371036,97 C3.77142358,97 0,93.2274855 0,88.5902674 L0,37.9314717 C0,33.2869046 3.76885182,29.5217391 8.42371036,29.5217391 L33.7777778,29.5217391 L33.7777778,14.4046246 L29.0089414,19.1680047 C27.3752671,20.7998097 24.7257264,20.7989795 23.0653504,19.1405033 C21.41647,17.4935095 21.4262029,14.8134834 23.0378175,13.2037127 L35.0351313,1.22012584 C35.8474533,0.408733138 36.9109422,0.000999606087 37.9791021,0 L38.0113286,0.0125905157 C39.0836181,0.0148754139 40.1498557,0.419709173 40.9511894,1.22012584 L52.9485031,13.2037127 C54.5821774,14.8355178 54.581346,17.4820269 52.92097,19.1405033 C51.2720896,20.7874971 48.5889939,20.7777753 46.977379,19.1680047 L42.2222222,14.4182885 Z M33.7777778,37.9565217 L8.44444444,37.9565217 L8.44444444,88.5652174 L67.5555556,88.5652174 L67.5555556,37.9565217 L42.2222222,37.9565217 L42.2222222,54.8324031 C42.2222222,57.1581158 40.3481264,59.0434783 38,59.0434783 C35.6681311,59.0434783 33.7777778,57.1562401 33.7777778,54.8324031 L33.7777778,37.9565217 Z M21.1111111,29.5217391 L21.1111111,37.9565217 L54.8888889,37.9565217 L54.8888889,29.5217391 L21.1111111,29.5217391 Z M33.7777778,29.5217391 L42.2222222,29.5217391 L42.2222222,37.9565217 L33.7777778,37.9565217 L33.7777778,29.5217391 Z"></path>
                </g>
            </g>
        </g>
    </g>
</svg>