<?xml version="1.0" encoding="UTF-8"?>
<svg width="75px" height="71px" viewBox="0 0 75 71" version="1.1" xmlns="http://www.w3.org/2000/svg" xmlns:xlink="http://www.w3.org/1999/xlink">
    <!-- Generator: Sketch 54.1 (76490) - https://sketchapp.com -->
    <title>share</title>
    <desc>Created with Sketch.</desc>
    <g id="Page-1" stroke="none" stroke-width="1" fill="none" fill-rule="evenodd">
        <g id="share" transform="translate(-8.000000, -8.000000)">
            <rect id="Rectangle-22" x="0" y="0" width="91" height="88"></rect>
            <g id="noun_Share_1058861" transform="translate(8.000000, 8.000000)" fill="#FFFFFF" fill-rule="nonzero">
                <g id="Group">
                    <g id="Shape">
                        <path d="M40.9234027,12.7754016 L40.9234027,48.5845439 C40.9234027,50.645254 39.2589097,52.3157895 37.1734027,52.3157895 C35.1023349,52.3157895 33.4234027,50.6435921 33.4234027,48.5845439 L33.4234027,12.7632946 L23.25202,21.7574249 C21.8010593,23.2032945 19.4478488,23.2025589 17.9731728,21.7330572 C16.5087066,20.2737295 16.517351,17.8990781 17.9487192,16.4727321 L34.5401311,1.08109903 C35.2616013,0.362160182 36.2061474,0.000885706316 37.154842,0 L37.1834643,0.0111558937 C38.1358267,0.01318044 39.082814,0.371885556 39.7945248,1.08109903 L57.2515612,16.4970999 C58.7025218,17.9429695 58.7017835,20.2879232 57.2271074,21.7574249 C55.7626413,23.2167526 53.3796286,23.2081386 51.9482602,21.7817927 L40.9234027,12.7754016 Z M7.5,63.5263158 L67.5,63.5263158 L67.5,37.3512224 C67.5,35.29692 69.164493,33.6315789 71.25,33.6315789 C73.3210678,33.6315789 75,35.3098179 75,37.3512224 L75,67.2803565 C75,68.306674 74.5845519,69.235909 73.9087127,69.9089021 C73.2227494,70.58406 72.2888413,71 71.2550783,71 L3.74492179,71 C2.71364259,71 1.77972523,70.5876212 1.10247591,69.9164748 C0.419047219,69.2294495 0,68.3002244 0,67.2803565 L0,37.3512224 C0,35.29692 1.66449307,33.6315789 3.75,33.6315789 C5.82106781,33.6315789 7.5,35.3098179 7.5,37.3512224 L7.5,63.5263158 Z"></path>
                    </g>
                </g>
            </g>
        </g>
    </g>
</svg>