<?xml version="1.0" encoding="UTF-8"?>
<svg width="79px" height="78px" viewBox="0 0 79 78" version="1.1" xmlns="http://www.w3.org/2000/svg" xmlns:xlink="http://www.w3.org/1999/xlink">
    <!-- Generator: Sketch 54.1 (76490) - https://sketchapp.com -->
    <title>comment</title>
    <desc>Created with Sketch.</desc>
    <g id="Page-1" stroke="none" stroke-width="1" fill="none" fill-rule="evenodd">
        <g id="comment" transform="translate(-6.000000, -6.000000)">
            <rect id="Rectangle-22" x="0" y="0" width="91" height="90"></rect>
            <path d="M8.517,83.161 C8.167,83.161 7.816,83.089 7.485,82.94 C6.581,82.534 6,81.634 6,80.643 L6,28.518 C6,16.102 16.102,6 28.518,6 L62.331,6 C74.747,6 84.849,16.102 84.849,28.518 L84.849,43.518 C84.849,55.934 74.747,66.036 62.331,66.036 L28.764,66.036 L10.189,82.526 C9.718,82.943 9.121,83.161 8.517,83.161 Z M29.0091478,12.036 C19.6491899,12.036 12.035,19.5369093 12.035,28.7554818 L12.035,73.2492727 L26.7351829,60.3954896 C27.2051227,59.9842451 27.8148793,59.7681026 28.4440549,59.789143 C28.5625108,59.7939249 28.6790248,59.801576 28.7965098,59.8092271 C28.8673891,59.8149654 28.9382685,59.82166 29.0101188,59.82166 L61.840851,59.82166 C71.2008089,59.82166 78.8149988,52.3207508 78.8149988,43.1021782 L78.8149988,28.7564382 C78.8149988,19.5369093 71.199838,12.0369564 61.840851,12.0369564 L29.0091478,12.0369564 L29.0091478,12.036 Z" id="Shape" fill="#FFFFFF" fill-rule="nonzero" transform="translate(45.424500, 44.580500) scale(-1, 1) translate(-45.424500, -44.580500) "></path>
        </g>
    </g>
</svg>