<?xml version="1.0" encoding="UTF-8"?>
<svg width="98px" height="70px" viewBox="0 0 98 70" version="1.1" xmlns="http://www.w3.org/2000/svg" xmlns:xlink="http://www.w3.org/1999/xlink">
    <!-- Generator: Sketch 54.1 (76490) - https://sketchapp.com -->
    <title>noun_1566183_cc</title>
    <desc>Created with Sketch.</desc>
    <g id="Page-1" stroke="none" stroke-width="1" fill="none" fill-rule="evenodd">
        <g id="noun_1566183_cc">
            <rect id="Rectangle-30" fill="#FFFFFF" x="0" y="0" width="98" height="70"></rect>
            <path d="M46,64 L12.1538462,64 C8.76102564,64 6,61.3987 6,58.2 L6,55.3 C17.8748718,55.3 27.5384615,46.194 27.5384615,35 C27.5384615,23.806 17.8748718,14.7 6,14.7 L6,11.8 C6,8.6013 8.76102564,6 12.1538462,6 L46,6 L46,23.8118 C40.705641,25.1090667 36.7692308,29.6108333 36.7692308,35 C36.7692308,40.3891667 40.705641,44.8909333 46,46.1882 L46,64 Z" id="Shape" fill="#A2A4A6" fill-rule="nonzero"></path>
            <path d="M6,50 L6,21 C14.271,21 21,27.5047 21,35.5 C21,43.4953 14.271,50 6,50 Z" id="Shape" fill="#A2A4A6" fill-rule="nonzero"></path>
            <path d="M49,29 C52.308,29 55,31.691 55,35 C55,38.309 52.308,41 49,41 C45.692,41 43,38.309 43,35 C43,31.691 45.692,29 49,29 Z" id="Shape" fill="#A2A4A6" fill-rule="nonzero"></path>
            <path d="M92,21 L92,50 C83.729,50 77,43.4953 77,35.5 C77,27.5047 83.729,21 92,21 Z" id="Shape" fill="#A2A4A6" fill-rule="nonzero"></path>
            <path d="M92,55.3 L92,58.2 C92,61.3987 89.2389744,64 85.8461538,64 L52,64 L52,46.1882 C57.294359,44.8909333 61.2307692,40.3891667 61.2307692,35 C61.2307692,29.6108333 57.294359,25.1090667 52,23.8118 L52,6 L85.8461538,6 C89.2389744,6 92,8.6013 92,11.8 L92,14.7 C80.1251282,14.7 70.4615385,23.806 70.4615385,35 C70.4615385,46.194 80.1251282,55.3 92,55.3 Z" id="Shape" fill="#A2A4A6" fill-rule="nonzero"></path>
        </g>
    </g>
</svg>