<?xml version="1.0" encoding="UTF-8"?>
<svg width="88px" height="81px" viewBox="0 0 88 81" version="1.1" xmlns="http://www.w3.org/2000/svg" xmlns:xlink="http://www.w3.org/1999/xlink">
    <!-- Generator: Sketch 54.1 (76490) - https://sketchapp.com -->
    <title>heart-outline</title>
    <desc>Created with Sketch.</desc>
    <g id="Page-1" stroke="none" stroke-width="1" fill="none" fill-rule="evenodd">
        <g id="heart-outline" transform="translate(-6.000000, -6.000000)">
            <polygon id="Rectangle-21" points="0 0 100 0 100 93 0 93"></polygon>
            <path d="M69.8,6 C62.1,6 54.8404231,9.53151563 50,15.2700703 C45.1593654,9.53151563 37.9,6 30.2,6 C16.5595769,6 6,16.5934922 6,30.2778516 C6,47.0507578 20.9595769,60.5153203 43.6191538,81.2601797 L50,87 L56.3808462,81.2601797 C79.0402115,60.5151094 94,47.0505469 94,30.2778516 C94,16.5934922 83.4404231,6 69.8,6 Z M52.7153077,75.4526484 L51.8228269,76.2696094 L50,77.9092266 L48.1773846,76.2698203 L47.2859615,75.4537031 C36.6206154,65.6910937 27.4095962,57.2595 21.3204615,49.7205937 C15.4064808,42.3983203 12.7692308,36.402 12.7692308,30.2778516 C12.7692308,25.4547656 14.5508077,21.0111562 17.7858654,17.7658828 C21.0101346,14.5313672 25.4188077,12.75 30.2,12.75 C35.7283462,12.75 41.1936538,15.3164766 44.8194231,19.6149609 L50,25.7566172 L55.1803654,19.6149609 C58.8063462,15.3164766 64.2714423,12.75 69.8,12.75 C74.5814038,12.75 78.9898654,14.5313672 82.2143462,17.7656719 C85.4491923,21.0111562 87.2307692,25.4545547 87.2307692,30.2778516 C87.2307692,36.402 84.5935192,42.3981094 78.6799615,49.7201719 C72.5910385,57.2590781 63.3804423,65.6900391 52.7153077,75.4526484 Z" id="Shape" fill="#A2A4A6" fill-rule="nonzero"></path>
        </g>
    </g>
</svg>