<?xml version="1.0" encoding="UTF-8"?>
<svg width="66px" height="80px" viewBox="0 0 66 80" version="1.1" xmlns="http://www.w3.org/2000/svg" xmlns:xlink="http://www.w3.org/1999/xlink">
    <!-- Generator: Sketch 54.1 (76490) - https://sketchapp.com -->
    <title>noun_Flame_129549</title>
    <desc>Created with Sketch.</desc>
    <g id="Page-1" stroke="none" stroke-width="1" fill="none" fill-rule="evenodd">
        <g id="noun_Flame_129549" transform="translate(-6.000000, -7.000000)">
            <rect id="Rectangle-25" x="0" y="0" width="78" height="94"></rect>
            <path d="M58.47,30.559 L57.385,29.686 C56.107,28.658 54.173,29.05 53.468,30.531 C53.125,31.251 52.883,38.54 52.883,39.768 C52.883,40.016 52.831,40.423 52.837,40.466 C52.837,41.502 51.91,42.324 50.842,42.148 C50.002,42.01 49.428,41.213 49.424,40.362 C49.37,27.896 45.561,19.203 38.57,12.711 C34.295,8.741 29.24,5.235 27.693,7.972 C27.298,8.67 27.951,10.239 28.609,12.249 C30.071,16.72 25.61,23.86 19.304,30.995 C13.377,37.702 6,46.05 6,58.349 C6,70.389 14.296,81.646 25.444,86.889 C26.444,87.359 27.411,86.115 26.703,85.267 C24.255,82.334 22.847,78.504 23.047,74.34 C23.435,66.275 30.075,59.647 38.14,59.275 C47.244,58.854 54.758,66.111 54.758,75.123 C54.758,78.975 53.383,82.503 51.099,85.249 C50.38,86.114 51.313,87.374 52.331,86.896 C63.485,81.655 71.787,70.395 71.787,58.35 C71.787,47.898 66.808,37.509 58.47,30.559 Z" id="Shape" fill="#000000" fill-rule="nonzero"></path>
        </g>
    </g>
</svg>