<?xml version="1.0" encoding="UTF-8"?>
<svg width="97px" height="96px" viewBox="0 0 97 96" version="1.1" xmlns="http://www.w3.org/2000/svg" xmlns:xlink="http://www.w3.org/1999/xlink">
    <!-- Generator: Sketch 54.1 (76490) - https://sketchapp.com -->
    <title>chat</title>
    <desc>Created with Sketch.</desc>
    <g id="Page-1" stroke="none" stroke-width="1" fill="none" fill-rule="evenodd">
        <g id="chat" transform="translate(-7.000000, -6.000000)">
            <rect id="Rectangle" x="0" y="0" width="110" height="108"></rect>
            <g id="noun_chat_1561009" transform="translate(6.000000, 6.000000)" fill="#262626" fill-rule="nonzero">
                <path d="M49,1.36859518e-15 C31.8407429,-0.0267976158 15.975694,9.1195996 7.40057925,23.9825814 C-1.17453553,38.8455632 -1.15187385,57.1582868 7.46,72 L1.21,90.73 C0.730620778,92.1674638 1.10465567,93.7523994 2.17612813,94.8238719 C3.2476006,95.8953443 4.83253625,96.2693792 6.27,95.79 L25,89.54 C42.4748645,99.657449 64.4131524,97.7566047 79.8874018,84.7842776 C95.3616512,71.8119505 101.062707,50.5422621 94.1508728,31.5696446 C87.2390387,12.5970271 69.1924049,-0.0212409854 49,1.36859518e-15 Z M49,88 C41.4372181,87.995116 34.0320461,85.837731 27.65,81.78 C27.0097809,81.3748312 26.2676558,81.159823 25.51,81.16 C25.0813431,81.1606378 24.6556931,81.2315795 24.25,81.37 L11.32,85.68 L15.63,72.75 C16.0099306,71.612509 15.8594434,70.3645665 15.22,69.35 C5.47630891,53.9126386 7.42050016,33.8369191 19.9453429,20.5561075 C32.4701857,7.27529582 52.3976663,4.15922288 68.3789418,12.9825145 C84.3602174,21.805806 92.3402501,40.3296683 87.7743541,58.004629 C83.2084581,75.6795898 67.2551694,88.0208608 49,88 Z" id="Shape"></path>
            </g>
        </g>
    </g>
</svg>