<?xml version="1.0" encoding="UTF-8"?>
<svg width="28px" height="20px" viewBox="0 0 28 20" version="1.1" xmlns="http://www.w3.org/2000/svg" xmlns:xlink="http://www.w3.org/1999/xlink">
    <!-- Generator: Sketch 54.1 (76490) - https://sketchapp.com -->
    <title>sort</title>
    <desc>Created with Sketch.</desc>
    <g id="Page-1" stroke="none" stroke-width="1" fill="none" fill-rule="evenodd">
        <g id="sort" transform="translate(-6.000000, -6.000000)">
            <rect id="Rectangle-24" x="0" y="0" width="40" height="32"></rect>
            <path d="M32,10 L8,10 C6.8954305,10 6,9.1045695 6,8 C6,6.8954305 6.8954305,6 8,6 L32,6 C33.1045695,6 34,6.8954305 34,8 C34,9.1045695 33.1045695,10 32,10 Z" id="Shape" fill="#FFFFFF" fill-rule="nonzero"></path>
            <path d="M26,18 L8,18 C6.8954305,18 6,17.1045695 6,16 C6,14.8954305 6.8954305,14 8,14 L26,14 C27.1045695,14 28,14.8954305 28,16 C28,17.1045695 27.1045695,18 26,18 Z" id="Shape" fill="#FFFFFF" fill-rule="nonzero"></path>
            <path d="M14,26 L8,26 C6.8954305,26 6,25.1045695 6,24 C6,22.8954305 6.8954305,22 8,22 L14,22 C15.1045695,22 16,22.8954305 16,24 C16,25.1045695 15.1045695,26 14,26 Z" id="Shape" fill="#FFFFFF" fill-rule="nonzero"></path>
        </g>
    </g>
</svg>