<?xml version="1.0" encoding="UTF-8"?>
<svg width="65px" height="49px" viewBox="0 0 65 49" version="1.1" xmlns="http://www.w3.org/2000/svg" xmlns:xlink="http://www.w3.org/1999/xlink">
    <!-- Generator: Sketch 54.1 (76490) - https://sketchapp.com -->
    <title>Group 10</title>
    <desc>Created with Sketch.</desc>
    <g id="Page-1" stroke="none" stroke-width="1" fill="none" fill-rule="evenodd">
        <g id="Group-10" transform="translate(-6.000000, -6.000000)">
            <rect id="Rectangle" x="0" y="0" width="77" height="61"></rect>
            <g id="noun_jersey_1112655" transform="translate(6.000000, 6.000000)" fill="#FFFFFF" fill-rule="nonzero">
                <path d="M14.0848679,44.7391304 L50.9151321,44.7391304 L50.9151321,47.9347826 C50.9151321,48.5206522 50.4276727,49 49.831889,49 L15.168111,49 C14.5723273,49 14.0848679,48.5206522 14.0848679,47.9347826 L14.0848679,44.7391304 Z M0.316848596,15.2219565 C-0.105616199,15.6373913 -0.105616199,16.3191304 0.316848596,16.7345652 L10.0660362,26.3215217 C10.488501,26.7369565 11.1817765,26.7369565 11.6042413,26.3215217 L12.8499708,25.097587 L1.56257812,13.9969565 L0.316848596,15.2219565 Z M62.6780685,13.2513043 L51.3928423,24.3487391 L50.9151321,23.8715217 L50.9151321,41.5434783 L14.0848679,41.5434783 L14.0848679,23.8715217 L13.6060745,24.3487391 L2.32084826,13.2513043 L14.2148571,1.55521739 C15.243938,0.553913043 16.5979918,0 18.0495375,0 L24.9172986,0 C25.5130822,0 26.0005416,0.479347826 26.0005416,1.06521739 C26.0005416,4.59108696 28.9144655,7.45652174 32.5,7.45652174 C36.0866178,7.45652174 38.9994584,4.59108696 38.9994584,1.06521739 C38.9994584,0.479347826 39.4869178,3.7844124e-15 40.0827014,3.7844124e-15 L46.9504625,3.7844124e-15 C48.4020082,3.7844124e-15 49.756062,0.553913043 50.7851429,1.55521739 L62.6780685,13.2513043 Z M30.3335139,19.173913 C30.3335139,18.5880435 29.8460545,18.1086957 29.2502708,18.1086957 L27.0837847,18.1086957 C26.488001,18.1086957 26.0005416,18.5880435 26.0005416,19.173913 L26.0005416,31.9565217 C26.0005416,32.5423913 26.488001,33.0217391 27.0837847,33.0217391 L29.2502708,33.0217391 C29.8460545,33.0217391 30.3335139,32.5423913 30.3335139,31.9565217 L30.3335139,19.173913 Z M38.9994584,19.173913 C38.9994584,18.5880435 38.511999,18.1086957 37.9162153,18.1086957 L35.7497292,18.1086957 C35.1539455,18.1086957 34.6664861,18.5880435 34.6664861,19.173913 L34.6664861,31.9565217 C34.6664861,32.5423913 35.1539455,33.0217391 35.7497292,33.0217391 L37.9162153,33.0217391 C38.511999,33.0217391 38.9994584,32.5423913 38.9994584,31.9565217 L38.9994584,19.173913 Z M64.6831514,15.2219565 L63.4385051,13.9969565 L52.1511124,25.0965217 L53.3957587,26.3204565 C53.8182235,26.7358913 54.511499,26.7358913 54.9339638,26.3204565 L64.6831514,16.7335 C65.1056162,16.3191304 65.1056162,15.6373913 64.6831514,15.2219565 Z" id="Shape"></path>
            </g>
        </g>
    </g>
</svg>